<?xml version="1.0" standalone="no"?>
<!DOCTYPE svg PUBLIC "-//W3C//DTD SVG 20010904//EN"
 "http://www.w3.org/TR/2001/REC-SVG-20010904/DTD/svg10.dtd">
<svg version="1.0" xmlns="http://www.w3.org/2000/svg"
 width="92.000000pt" height="92.000000pt" viewBox="0 0 92.000000 92.000000"
 preserveAspectRatio="xMidYMid meet">
<metadata>
Created by potrace 1.14, written by Peter Selinger 2001-2017
</metadata>
<g transform="translate(0.000000,92.000000) scale(0.100000,-0.100000)"
fill="#000000" stroke="none">
<path d="M288 810 c-15 -5 -29 -6 -31 -4 -7 8 -60 -53 -64 -73 -8 -44 -3 -74
16 -96 10 -13 7 -21 -18 -48 -17 -18 -32 -36 -32 -40 -6 -37 -4 -59 8 -89 17
-43 18 -38 -19 -77 -37 -38 -40 -65 -16 -115 21 -44 69 -73 101 -62 12 5 24 8
27 9 3 0 16 7 28 14 22 12 27 10 58 -24 28 -31 39 -36 71 -34 21 1 47 8 59 15
18 11 27 9 66 -20 31 -22 56 -31 80 -31 82 2 127 87 89 166 -12 24 -10 30 21
71 39 50 41 70 13 122 l-20 36 33 30 c18 16 32 31 31 32 0 2 2 15 6 31 4 16 3
33 -4 41 -6 7 -8 15 -5 19 3 3 -13 19 -35 35 -46 33 -89 36 -121 7 -22 -20
-37 -19 -49 4 -6 10 -25 28 -44 38 -29 18 -37 18 -71 6 -22 -7 -45 -18 -52
-24 -9 -8 -17 -4 -30 16 -23 36 -63 54 -96 45z m112 -192 c22 -35 21 -48 -6
-59 -37 -14 -44 -12 -55 18 -9 23 -7 30 13 45 29 22 30 22 48 -4z m198 -38 c9
-15 10 -26 2 -40 -14 -25 -41 -26 -62 0 -16 18 -16 20 9 40 32 25 35 25 51 0z
m-218 -185 c0 -7 -9 -20 -20 -30 -19 -17 -21 -17 -40 0 -25 23 -25 33 2 56 20
18 22 18 40 3 10 -10 18 -22 18 -29z m194 -24 c3 -5 -2 -19 -12 -31 l-18 -22
-24 20 c-24 20 -24 20 -6 41 14 15 23 18 37 11 10 -6 20 -14 23 -19z"/>
</g>
</svg>
